<?xml version="1.0" encoding="utf-8"?>
<!-- Generator: Adobe Illustrator 23.0.0, SVG Export Plug-In . SVG Version: 6.00 Build 0)  -->
<svg version="1.1" id="Layer_1" xmlns="http://www.w3.org/2000/svg" xmlns:xlink="http://www.w3.org/1999/xlink" x="0px" y="0px"
	 viewBox="0 0 96 96" style="enable-background:new 0 0 96 96;" xml:space="preserve">
<style type="text/css">
	.st0{stroke:#000000;stroke-width:4;stroke-miterlimit:10;}
	.st1{fill:url(#Ellipse_95_1_);}
	.st2{fill:url(#Path_733_1_);}
	.st3{fill:url(#Path_734_1_);}
	.st4{fill:url(#Path_735_1_);}
	.st5{opacity:0.19;}
	.st6{fill:#E58217;}
	.st7{fill:url(#Path_739_1_);}
	.st8{fill:none;stroke:#F7EBC6;stroke-miterlimit:10;}
</style>
<g id="Layer_26" transform="translate(-1.1 -1.1)">
	<circle id="Ellipse_94" class="st0" cx="49.3" cy="48.9" r="44.4"/>
	
		<radialGradient id="Ellipse_95_1_" cx="46.48" cy="51.81" r="44.28" gradientTransform="matrix(1.0021 0 0 -1.0021 2.7614 100.7799)" gradientUnits="userSpaceOnUse">
		<stop  offset="0" style="stop-color:#00A20D"/>
		<stop  offset="0.33" style="stop-color:#028308"/>
		<stop  offset="0.85" style="stop-color:#054C00"/>
	</radialGradient>
	<circle id="Ellipse_95" class="st1" cx="49.3" cy="48.9" r="44.4"/>
	
		<radialGradient id="Path_733_1_" cx="283.6805" cy="-336.4309" r="107.524" gradientTransform="matrix(0.482 0 0 -0.473 -126.2012 -145.9385)" gradientUnits="userSpaceOnUse">
		<stop  offset="0" style="stop-color:#00BD0D"/>
		<stop  offset="0.26" style="stop-color:#019E09"/>
		<stop  offset="0.82" style="stop-color:#055101"/>
		<stop  offset="0.85" style="stop-color:#054C00"/>
	</radialGradient>
	<path id="Path_733" class="st2" d="M93.5,44.5C90.9,20.1,69.1,2.4,44.7,5C24.1,7.2,7.8,23.3,5.3,43.9
		C34.7,48.6,64.1,47.9,93.5,44.5z"/>
	
		<linearGradient id="Path_734_1_" gradientUnits="userSpaceOnUse" x1="-244.3471" y1="465.1142" x2="-244.8081" y2="465.9119" gradientTransform="matrix(92.44 0 0 -92.44 22659.7129 43083.7227)">
		<stop  offset="0.1" style="stop-color:#331900"/>
		<stop  offset="0.27" style="stop-color:#5E2B01"/>
		<stop  offset="0.32" style="stop-color:#7F4A1D"/>
		<stop  offset="0.43" style="stop-color:#D19863"/>
		<stop  offset="0.49" style="stop-color:#FFC38A"/>
		<stop  offset="0.64" style="stop-color:#FFE68D"/>
		<stop  offset="0.8" style="stop-color:#FFC38A"/>
		<stop  offset="0.92" style="stop-color:#FFD81B"/>
		<stop  offset="1" style="stop-color:#5E2B01"/>
	</linearGradient>
	<path id="Path_734" class="st3" d="M95.6,48.9c0-25.6-20.7-46.3-46.3-46.4C23.8,2.5,3,23.2,3,48.8c0,25.6,20.7,46.3,46.3,46.4
		c4.9,0,9.8-0.8,14.5-2.3C70.3,87,77.6,82,85.3,78C92,69.7,95.6,59.5,95.6,48.9z M6.9,48.9c0-23.5,19-42.5,42.5-42.5
		s42.5,19,42.5,42.5s-19,42.5-42.5,42.5C25.9,91.3,6.9,72.3,6.9,48.9C6.9,48.9,6.9,48.9,6.9,48.9z"/>
	
		<linearGradient id="Path_735_1_" gradientUnits="userSpaceOnUse" x1="-235.6107" y1="444.2555" x2="-237.5969" y2="449.231" gradientTransform="matrix(21.46 0 0 -14.82 5131.5488 6670.6338)">
		<stop  offset="0.1" style="stop-color:#331900"/>
		<stop  offset="0.27" style="stop-color:#5E2B01"/>
		<stop  offset="0.32" style="stop-color:#7F4A1D"/>
		<stop  offset="0.43" style="stop-color:#D19863"/>
		<stop  offset="0.49" style="stop-color:#FFC38A"/>
		<stop  offset="0.64" style="stop-color:#FFE68D"/>
		<stop  offset="0.89" style="stop-color:#FFC38A"/>
		<stop  offset="1" style="stop-color:#FFF11B"/>
	</linearGradient>
	<path id="Path_735" class="st4" d="M85.3,78c-7.7,4.1-15,9.1-21.5,14.9C72.2,90,79.7,84.9,85.3,78z"/>
	<g id="Group_69" class="st5">
		<path id="Path_736" class="st6" d="M49.6,91.3L46.4,95c0.8,0,1.5,0.1,2.3,0.1c1-1.3,2-2.6,3-3.9C51.1,91.3,50.3,91.3,49.6,91.3z"
			/>
		<path id="Path_737" class="st6" d="M54.8,91c-0.7,1.4-1.3,2.7-2,4l0.8-0.1c0.8-1.4,1.6-2.8,2.5-4.2L54.8,91z"/>
		<path id="Path_738" class="st6" d="M60.1,89.9c-0.6,0.2-1.1,0.3-1.7,0.4c-0.7,1.4-1.3,2.8-2,4.2c0.5-0.1,1-0.2,1.5-0.3
			C58.6,92.9,59.3,91.4,60.1,89.9z"/>
	</g>
	
		<linearGradient id="Path_739_1_" gradientUnits="userSpaceOnUse" x1="-244.5774" y1="466.2" x2="-244.6917" y2="465.0095" gradientTransform="matrix(93.8 0 0 -93.8 22995.8418 43722.6445)">
		<stop  offset="2.000000e-02" style="stop-color:#331900"/>
		<stop  offset="0.18" style="stop-color:#5E2B01"/>
		<stop  offset="0.25" style="stop-color:#7F4A1D"/>
		<stop  offset="0.41" style="stop-color:#D19863"/>
		<stop  offset="0.49" style="stop-color:#FFC38A"/>
		<stop  offset="0.77" style="stop-color:#5E2B01"/>
		<stop  offset="0.95" style="stop-color:#3E1D00"/>
		<stop  offset="1" style="stop-color:#331900"/>
	</linearGradient>
	<path id="Path_739" class="st7" d="M49.1,96.1c-26,0-47-21-47-47s21-47,47-47s47,21,47,47S75.1,96.1,49.1,96.1L49.1,96.1z
		 M49.1,3.1c-25.4,0-46,20.6-46,46s20.6,46,46,46s46-20.6,46-46S74.5,3.1,49.1,3.1C49.1,3.1,49.1,3.1,49.1,3.1z"/>
	<circle id="Ellipse_96" class="st8" cx="49.3" cy="48.9" r="44.4"/>
</g>
</svg>
